<svg width="74" height="64" viewBox="0 0 74 64" fill="none" xmlns="http://www.w3.org/2000/svg">
<rect width="73.9436" height="64" rx="16" fill="#242938"/>
<path d="M8.04504 15.4596H21.5708V19.4521H8.04504V15.4596ZM8.04504 8.04489H21.5708V12.0374H8.04504V8.04489ZM32.3118 22.8172H8.04504V26.8097H31.4025C33.9599 26.8097 39.9272 26.8668 42.1436 30.46V28.2356C41.0638 24.6994 37.8813 22.8172 32.3118 22.8172ZM32.3687 30.2319H8.04504V34.2244H31.4025C37.0856 34.2244 40.666 34.4525 42.1436 35.251V33.4829C41.007 30.6882 36.2332 30.2319 32.3687 30.2319ZM32.3118 49.0537H8.04504V45.0612H31.4025C33.9599 45.0612 39.9272 45.0042 42.1436 41.4109V43.6353C41.0638 47.1716 37.8813 49.0537 32.3118 49.0537ZM32.3687 41.6391H8.04504V37.6466H31.4025C37.0856 37.6466 40.666 37.4184 42.1436 36.6199V38.388C41.007 41.1828 36.2332 41.6391 32.3687 41.6391ZM48.054 55.9551H65.8989V53.5025H48.5655C47.031 53.5025 43.3939 53.4455 42.0867 51.3352V52.704C42.7119 54.8144 44.6441 55.9551 48.054 55.9551ZM47.9972 51.4493H65.842V48.9967H48.5655C45.0988 48.9967 42.9392 48.8826 42.0867 48.3693V49.453C42.7687 51.1641 45.6671 51.4493 47.9972 51.4493Z" fill="white"/>
</svg>
