<svg width="65" height="56" viewBox="0 0 65 56" fill="none" xmlns="http://www.w3.org/2000/svg">
<rect width="64.7007" height="56" rx="14" fill="#242938"/>
<path d="M7.03931 13.5271H18.8743V17.0206H7.03931V13.5271ZM7.03931 7.03928H18.8743V10.5327H7.03931V7.03928ZM28.2727 19.9651H7.03931V23.4585H27.4771C29.7148 23.4585 34.9362 23.5084 36.8755 26.6525V24.7062C35.9307 21.612 33.146 19.9651 28.2727 19.9651ZM28.3225 26.4529H7.03931V29.9463H27.4771C32.4498 29.9463 35.5826 30.146 36.8755 30.8447V29.2976C35.881 26.8521 31.7039 26.4529 28.3225 26.4529ZM28.2727 42.922H7.03931V39.4286H27.4771C29.7148 39.4286 34.9362 39.3787 36.8755 36.2346V38.1809C35.9307 41.2751 33.146 42.922 28.2727 42.922ZM28.3225 36.4342H7.03931V32.9407H27.4771C32.4498 32.9407 35.5826 32.7411 36.8755 32.0424V33.5895C35.881 36.0349 31.7039 36.4342 28.3225 36.4342ZM42.0471 48.9607H57.6614V46.8147H42.4947C41.152 46.8147 37.9695 46.7648 36.8258 44.9183V46.116C37.3728 47.9626 39.0635 48.9607 42.0471 48.9607ZM41.9974 45.0181H57.6117V42.8721H42.4947C39.4613 42.8721 37.5717 42.7723 36.8258 42.3231V43.2714C37.4225 44.7686 39.9586 45.0181 41.9974 45.0181Z" fill="white"/>
</svg>
